<?xml version="1.0" encoding="UTF-8"?>
<svg id="Camada_1" xmlns="http://www.w3.org/2000/svg" version="1.1" viewBox="0 0 512 512">
  <!-- Generator: Adobe Illustrator 29.5.1, SVG Export Plug-In . SVG Version: 2.1.0 Build 141)  -->
  <defs>
    <style>
      .st0 {
        fill: #fff;
      }
    </style>
  </defs>
  <rect y="0" width="512" height="512" rx="32" ry="32"/>
  <path class="st0" d="M260.2,21.7c-35.4,0-63,5.2-82.3,12.8-9.7,3.8-17.1,8.2-22.8,13.4-2.9,2.6-5.4,5.5-7.1,8.8-20.7,19-36,48.8-45.8,81.7-9.4,31.5-13.8,66-11.5,97.6-1.8,22.8,10.7,55.1,25,81h0c0,.1,0,.2,0,.2,33.9,35,83.5,60.8,135.3,67.6v-255.2c3,.1,6.1.2,9.2.2s6.4,0,9.5-.2v255c62-8.6,120.5-44.5,152.6-90.2,6.3-18.6,9-38.5,7.3-54.9,3-32.4-1.4-68.4-11.2-101-10-33.2-25.3-63.2-46.2-82.1-1.8-3.1-4.1-5.8-6.9-8.3-5.7-5.2-13.1-9.6-22.8-13.4-19.3-7.7-46.9-12.8-82.3-12.8h0ZM260.2,40.4c33.6,0,59.1,5.2,75.3,11.7,8.1,3.2,14.2,6.3,17.5,9.3,3.3,3,3.5,5.5,3.5,5.8,0,10.5-8.3,21.1-25.7,29.8-17.4,8.6-42.7,14-70.7,14s-53.3-5.1-70.7-13.4c-17.3-8.4-25.7-18.5-25.7-30.4s.8-2.8,4.1-5.8c3.3-3,8.8-6.1,16.9-9.3,16.3-6.5,41.8-11.7,75.3-11.7h0ZM371.6,83.7c11.8,15.7,22,36.8,29,60.2,7.6,25.3,11.6,53,11.2,78.6-16.2-13.4-28.5-34.7-36.6-57.4-8.7-24.4-12.6-51-8-73.8,1.7-2.4,3.2-4.9,4.4-7.6h0ZM148.7,84.1c.6,1.3,1.2,2.6,1.9,3.8,5.5,26,1,54.8-8.9,80.2-7.9,20.5-19.2,39-33,51.8,0-24.9,3.9-51.6,11.2-76,6.9-23.2,17-44.2,28.7-59.8h0ZM390.8,353.4c-36.6,28-82.7,47-130.6,51.1h-.8c0,0-.8,0-.8,0-47.3-4-92.8-22.7-129.1-50.2-1,3-1.4,6.1-1.4,9.2,0,15.5,12.5,31.5,36.4,43.9,23.9,12.5,58,20.6,95.8,20.6s71.9-8.1,95.8-20.6c23.9-12.5,36.4-28.4,36.4-43.9s-.6-6.7-1.7-10ZM115.1,386.7c-17.4,12.9-26.6,27.5-26.6,41.8s10.3,29.3,26.2,43.1c14,12.2,31.9,21.2,47.3,23.1,9.7-22.7,20.3-41.6,31.7-56.4-13.9-3.7-26.7-8.5-37.8-14.4-18.4-9.6-33.1-22.3-40.7-37.2h0ZM405.4,386.8c-7.6,14.9-22.3,27.6-40.7,37.2-11.2,5.9-24,10.7-38,14.4,11.4,14.9,22,33.7,31.7,56.4,14.7-2,32.6-10.9,46.7-23.1,16.1-13.8,26.7-31.7,26.7-43.1s-9.1-28.9-26.4-41.8Z"/>
</svg>