<?xml version="1.0" encoding="UTF-8"?>
<svg id="Camada_1" xmlns="http://www.w3.org/2000/svg" version="1.1" viewBox="0 0 512 512">
  <!-- Generator: Adobe Illustrator 29.5.1, SVG Export Plug-In . SVG Version: 2.1.0 Build 141)  -->
  <defs>
    <style>
      .st0 {
        fill: #fff;
      }
    </style>
  </defs>
  <rect y="0" width="512" height="512" rx="32" ry="32"/>
  <path class="st0" d="M346,19.6c-1.1,0-2.2,0-3.2,0-14.7.5-25.9,5.6-32.2,14.5-7.2,10.1-7.7,24.6-.8,41.2,6.8,16.6,21.1,34.5,41,48.6,19.9,14.1,41.5,21.6,59.4,22.5,18,.9,31.5-4.3,38.7-14.4,7.2-10.1,7.7-24.6.8-41.2-6.8-16.6-21.1-34.5-41-48.6-19.9-14.1-41.5-21.6-59.4-22.5-1.1,0-2.2,0-3.3-.1h0ZM298.2,94.2l-18.8,26.6c-.4.6-.8,1.2-1.2,1.8-9.1-2.4-18.3-4-27.4-4.4-1.8-.1-3.7-.2-5.5-.2-1.8,0-3.7,0-5.5.1-25.6,1.2-49.9,11.9-66.2,34.9L42.2,338.3l3.4,5.3,73.3,115.5,139.4,32.3,131.5-185.5c18.7-26.4,18.7-57.1,7.3-84.4-4.8-11.5-11.5-22.5-19.5-32.8l17.9-25.2c-6.3-1.2-12.8-2.9-19.2-5.2l-14.7,20.7c-3.8,5.3-9.1,7-17.7,6.1-8.6-.9-19.3-5.3-28.6-11.8-9.3-6.5-17-15-20.7-22.7-3.7-7.7-3.9-13.3.1-19l14.8-20.9c-4.3-5.4-8-10.9-11.2-16.5h0ZM245.1,136.6c1.5,0,3.1,0,4.6.1,7.6.4,15.6,1.8,23.6,3.9,0,6.2,1.7,12.4,4.4,18,5.7,11.7,15.5,21.9,26.9,29.9,11.4,7.9,24.3,13.7,37.2,15.1,7.2.8,14.7,0,21.4-2.9,7,9,12.7,18.4,16.7,27.9,9.6,23,9.5,45.4-5.3,66.4l-12.9,18.2-94.9-49,23.8-33.5-15.2-10.8-29.2,41.1-147.1,29.5,89.9-126.7c13-18.3,30.9-26.3,51.8-27.1,1.5,0,3,0,4.5,0h0ZM93.4,298.3l92.1,48.1-61.3,86.4-59.6-93.9,28.7-40.5ZM355.9,321.3l-105.7,149-111.4-25.8,67.3-94.9,149.8-28.3Z"/>
</svg>