<?xml version="1.0" encoding="UTF-8"?>
<svg id="Camada_1" xmlns="http://www.w3.org/2000/svg" version="1.1" viewBox="0 0 512 512">
  <!-- Generator: Adobe Illustrator 29.5.1, SVG Export Plug-In . SVG Version: 2.1.0 Build 141)  -->
  <defs>
    <style>
      .st0 {
        fill: #fff;
      }
    </style>
  </defs>
  <rect y="0" width="512" height="512" rx="32" ry="32"/>
  <path class="st0" d="M61.8,19.5c-15.1,0-30.2,2.4-45.2,7.6,61,25.8,119.5,82.5,176.5,149.7l60.3-40.1C192.4,67.5,127.2,19.8,61.8,19.5ZM442,32.1L109.9,252.7c-19.9,13.2-39.5,16.2-56,14.3-12.3-1.4-23-5.3-31.8-9.6-4.2,11.3-3.7,21-.2,27.5,4.7,8,14.5,13.6,35.4,10.7l22.8-3.2-14,18.1c-27.2,35.3-43.3,105,7.6,167.4,10.6,12.7,23,18,36.3,18.9,13.1,1,27-3,38.2-9.9,11.2-6.8,19.3-16.3,22.2-25.1,2.9-9,1.7-16.6-7.6-25.6-14.4-13.9-29.1-29.4-37-47.8,23.3-15.2,42.8-29.4,54.1-46.8,5.9-9.2,9.3-19.8,8.8-30.9-.6-11.1-4.8-22.3-12.4-34.2,95.2-68,199.2-130,296.4-197.7l-30.7-46.7ZM309.6,207.9l-59.5,39.2c26.7,34.1,53.2,69,79.6,102.4-14.7,12.4-28.6,17.5-37.5,16.7l-1.6,18.6c19.7,1.7,41-9.7,61.3-30.4,21.9-22.4,44.7-28.1,65.2-24.7,20.5,3.5,38.9,16.8,49.6,34.2,10.7,17.5,13.7,38.3,4.7,58.1-9,19.9-30.8,39.7-73.1,52.7l5.4,17.8c45.8-14,72.9-36.8,84.7-62.7,11.8-25.9,7.7-53.8-5.8-75.6-13.4-21.9-36-38.5-62.4-42.9-13-2.2-26.9-1.2-40.6,3.4-22.1-36.7-45.5-73-70-106.8h0ZM161.5,288.1c5.7,9.3,8.1,17,8.5,23.6.3,7-1.5,13.2-5.8,19.8-7.7,11.9-23.4,24.2-44.1,38.2-.3-2.2-.5-4.4-.6-6.8-1.1-23.6,11-48.7,42-74.8ZM384.5,353.1c-6.6,3-13.4,7.4-20.2,13.6,8.6,26.1,36.2,62.1,60.3,77.1,8.6-4.9,15.2-10.3,20.1-16-8.9-25.8-37.4-59.9-60.2-74.7h0Z"/>
</svg>