<?xml version="1.0" encoding="UTF-8"?>
<svg id="Camada_1" xmlns="http://www.w3.org/2000/svg" version="1.1" viewBox="0 0 800 800">
  <!-- Generator: Adobe Illustrator 29.5.1, SVG Export Plug-In . SVG Version: 2.1.0 Build 141)  -->
  <path d="M776.5,22c-148.7,5.5-269.2,37.6-361.4,87.2l-46,77-7.8-43.9c-16.5,11.6-31.7,23.8-45.8,36.6l-23,70.4-7.9-39.3c-63.5,71.1-94.4,156-92.1,243.6,73.9-146.4,206.9-269.9,331.2-345.5l15.2,24.9c-117.7,71.6-244.4,189.4-315.9,325.4h19c30.9-18.8,61.2-42,91.3-67.9l-47.3,2.5,84.7-36.1c73.2-68.2,146-148.4,223.9-216.1l-38.2-8.1,88.3-32.9c42-32,85.6-59.1,131.8-77.9h0ZM93,487.5v47.5h210.1v-47.5H93ZM124.8,564.3l-51,44.8-34.8,132.8,22.7,24.8h276.9l22.8-24.8-34.8-132.8-48.3-44.8H124.8Z"/>
</svg>