<?xml version="1.0" encoding="UTF-8"?>
<svg id="Camada_1" xmlns="http://www.w3.org/2000/svg" version="1.1" viewBox="0 0 512 512">
  <!-- Generator: Adobe Illustrator 29.5.1, SVG Export Plug-In . SVG Version: 2.1.0 Build 141)  -->
  <path d="M467.8,512c0-70.5-.8-126.4-15.4-164.7-15.5-40.6-44.1-64.8-112.1-75.4l-22.3-3.5,14-17.6c20.7-26.1,33.7-63.5,33.7-105.3s-13.1-77.9-33.6-104C311.8,15.4,284.6,0,254.9,0h0C225.2,0,197.9,15.3,177.5,41.4c-20.4,26.1-33.5,63.1-33.5,104s14.6,80.6,36.4,107l14.2,17.1-21.8,4.2c-62.3,11.7-91.8,35.7-108.9,75.8-16,37.8-19.4,92.5-19.8,162.5h69.3v-71.3h21.8v71.3h241.9v-71.3h22v71.3h68.7ZM292.6,85.1h0c2.3.8,5,1.6,7.5,3.3,2.4,1.8,4.7,4,7.1,6,9.9,7.9,19.3,23.2,19.3,23.2l-.5.9s-11.9-4.8-23.2-10.4c-2.9-1.3-5.9-2.5-8.5-4-2.5-1.5-4.4-3.7-6.1-5.4-3.3-3.7-4.7-13.8-4.7-13.8,1.7-1.6,7.1-.4,9.1.2ZM294.7,117.9c11.7,0,21.3,9.5,21.3,21.3s-9.5,21.3-21.3,21.3-21.3-9.5-21.3-21.3,9.6-21.3,21.3-21.3ZM238.5,139.2c0,11.7-9.5,21.3-21.3,21.3s-21.3-9.5-21.3-21.3,9.5-21.3,21.3-21.3c11.8,0,21.3,9.5,21.3,21.3ZM185.9,118.3l-.5-.9s9.4-15.3,19.3-23.2c2.4-2.1,4.7-4.3,7.1-6,2.5-1.5,5.3-2.4,7.5-3.3,3-.7,7.9-2,9.1-.3,0,0-1.5,10.1-4.7,13.8-1.8,1.8-3.6,3.8-6.1,5.4-2.6,1.4-5.6,2.6-8.5,4-11.3,5.7-23.2,10.5-23.2,10.5ZM364.6,389.6h-25.2c-3.8,40.1-35.5,71.8-75.5,75.5v25.2h-15.8v-25.2c-40.1-3.8-71.7-35.5-75.5-75.5h-25.2v-15.8h25.2c3.8-40.1,35.5-71.8,75.5-75.5v-25.1h15.8v25.1c40.1,3.8,71.8,35.5,75.5,75.5h25.2v15.8Z"/>
  <path d="M322.2,373.8c-3.6-30.6-27.8-54.8-58.4-58.4v22.1h-15.8v-22.1c-30.6,3.6-54.8,27.8-58.4,58.4h22.1v15.8h-22.1c3.6,30.6,27.8,54.8,58.4,58.4v-22h15.8v22c30.6-3.6,54.8-27.8,58.4-58.4h-22.1v-15.8h22.1ZM288.1,389.6h-24.3v21.7h-15.8v-21.7h-24.3v-15.8h24.3v-26.9h15.8v26.9h24.3v15.8Z"/>
</svg>