<?xml version="1.0" encoding="UTF-8"?>
<svg id="Camada_1" xmlns="http://www.w3.org/2000/svg" version="1.1" viewBox="0 0 512 512">
  <!-- Generator: Adobe Illustrator 29.5.1, SVG Export Plug-In . SVG Version: 2.1.0 Build 141)  -->
  <path d="M252.5,7.7c-2.2,1.3-4,3.1-5.2,5.4-3.9,8,1,17.1,3,24.9,2.5,9.5,25.1,82.8,38.2,107.2l1.2,2.2-.3,27.3c4,7,9.6,13,16.7,18.9,25.9,18.3,46.7,28.3,72,41.9l-8.5,9.5c-9.1,10.1-23,14.2-38.9,15.5-13,1-27.4-.1-42.1-3.3l-.2,21.5c28.1,8.3,54.7,10.7,80.3.3,16-6.4,27.4-19.8,37.2-37.4,5.9-10.8,11.2-23,16.3-35.4l8.9-32.6,1.7-1.8c36.7-39.3,54.5-66.7,72.8-104.7,1.9-4,2.3-14.5-.4-18.1l-1.4-1.9c-4.9-6.4-14.4-6.1-18.7.8-23.9,37.6-48.2,76.2-86.1,107-1.1,1.3-2.2,2.7-3.4,4-9.4,10.7-22.6,17.3-36.6,15.7-14-1.7-25.3-11.2-32.2-23.6-3.4-6.1-5.7-13-7.1-20.2-1.3-6.5-6.7-13.2-9.7-19.1-3.8-7.3-33.7-90-36.9-96.7-5-10.1-11.8-12.6-20.6-7.3Z"/>
  <path d="M368.2,68.6c-5.9,0-12.1,3.2-17.5,9.3-6.4,7-11.2,17.8-12.7,30.4-1.4,12.7,1,24.3,5.6,32.6,4.4,8.2,10.7,12.9,17.5,13.7,6.7.8,13.8-2.3,20-9.2,6.4-7,11.2-17.9,12.7-30.5,1.4-12.5-1-24.3-5.6-32.5-4.4-8.2-10.7-12.9-17.5-13.7-.9,0-1.7,0-2.5,0Z"/>
  <path d="M242.7,147.5c-7.6,0-13.7,1.8-18.4,4.6-9.4,5.6-13,13.9-10.6,22.3,8.5,31.2,38.4,51.8,70.2,61.1,15.9,4.6,32.1,6.2,45.2,5.1,4.7-.3,8.8-1.2,12.4-2.2-17.2-9.1-33.9-17.9-47.6-29.2-16.7-13.7-28.8-32.2-30.4-57.1-7.7-3.1-14.7-4.6-20.8-4.6h0Z"/>
  <path d="M444.2,203.9c-6.5,16-13,32.4-21.5,47.6-10.9,19.6-25.4,37.4-46.9,46.2-45,18.3-90.9,3.2-135-15.2-36.6-15.3-74.8-31.9-114.9-38-42.6-6.4-84.6,2.5-125.9,12.7v254.8h181.7c-40.8-31.1-73.3-71.6-77.9-119.1-1.1-12.8,1.5-26.6,12.4-34.5,8.5-4.9,17.7-4.4,26-.4,7.7,3.7,14.5,9.3,20.7,15.2,9,8.4,16.4,17.7,19.9,22.1,5.8-1,12.2-1.6,17.6-1.9.3-4.6.9-10.1,1.8-15.9,1.2-6.7,2.3-14,6.1-20,5.9-9.4,10.9-14.7,20.6-14.7,7.9-.1,14.7,4.4,19.8,9.5,5.8,5.8,10.4,13.1,14.2,20.2,6.4,12,10.5,23.4,11.8,27.1,1,.2,1.8.3,2.8.4,4.1.7,8.3,1.2,12.4,1.9,1-2.9,2.4-6.9,4.2-10.9,1.7-3.9,3.9-8,7-11.7,3.1-3.8,7.8-7.8,14.5-7.9,7.1-.2,12.4,3.9,16.2,7.9,3.7,4.1,6.5,8.7,8.8,13.1,3.5,7,5.8,13.5,6.8,16.3,7.6.4,14.8.7,21.8.4,55.7-1.8,102-53.5,105.7-108.3,2.2-30.4-9.5-71.1-30.7-96.9Z"/>
  <path d="M225.6,366.6c-3.8,8.9-4.9,17.7-5.7,26.9,10.5.4,21.4,1.7,32.6,3.1-5-10.7-9.3-21.8-17.4-30-5-4.9-7.2-4.4-9.5,0Z"/>
  <path d="M127.5,374.8c-3.6,2.6-5.1,7.1-4.3,16.3,2.2,13.8,6.3,25.2,10.8,36.4,6.8-12,16.8-20.4,28.6-25.9-8.9-9.5-16.9-19.9-28.6-25.6-2.1-.9-4.4-2.2-6.5-1.2Z"/>
  <path d="M309.6,404.8c5.4.8,10.8,1.6,16.2,2.1-9-17.1-8.6-21-16.2-2.1Z"/>
</svg>