<?xml version="1.0" encoding="UTF-8"?>
<svg id="Camada_1" xmlns="http://www.w3.org/2000/svg" version="1.1" viewBox="0 0 512 512">
  <!-- Generator: Adobe Illustrator 29.5.1, SVG Export Plug-In . SVG Version: 2.1.0 Build 141)  -->
  <path d="M436.4,29.6l-18.1,42.2-48.6,5.9,42.2,25.7,1.4,13.5c-45.3-26.1-110.8-41.5-198.5-34.6l-20.2-3.3-24.1-38.4.5,39.8-49.2,16.4,55.1,4.6,7.8,33.8,17.1-37.8,17.9-2.8c204,22,277.5,204.8,77.9,207.6l5.2-37.6,36.8-43.7-51.3-25-30.2-48.5-39.6,41.1-4.1,1C-8.4,163.1-31.7,304.5,98.8,376.1l-11.9,12.7-47.1-14.3,33,39.4-15.1,42.5,36.4-31.2,47,18.1-30.4-43.9,4.7-15c62.4,28.6,153.9,42.2,270.5,20.7-241,33.4-364.1-137.9-219.3-195.7l23,43.2-4,57,56.2-10,19.2,7.8c218.3,102.6,297.5-83.9,171.8-177.8l14.4-22.2,46.5-16.5-41.9-14.8-15.6-46.7h0ZM34.5,79l4.8,26.1-19.5,22,27.2-3.2,17.6,23.3.7-29.5,24.8-17.9-33.2-1.7-22.4-19.1h0ZM393.1,377.5l14.2,51.7-31.4,41.1,49.6-12.7,33.7,34.3-2.5-51.4,35.2-30.4-51.6,1.6-47.2-34.1h0Z"/>
</svg>