<?xml version="1.0" encoding="UTF-8"?>
<svg id="Camada_1" xmlns="http://www.w3.org/2000/svg" version="1.1" viewBox="0 0 512 512">
  <!-- Generator: Adobe Illustrator 29.5.1, SVG Export Plug-In . SVG Version: 2.1.0 Build 141)  -->
  <path d="M467.3,95.8c-21.2,0-46.1,10.7-66.3,30.9-6.3,6.3-11.7,13.1-16.1,20-34.6-20.9-85.7-19.9-134.2-4.6-10.8,2.9-21.6,6.6-31.9,10.9-51.8,21.6-93,59-102.2,106.2-7.8,35.7,6.4,74.9,56.2,112.3H31.6L.2,428h304.6l-104.8-122.3c28.8-31.7,79.9-51.8,114.9-53.4,16.3,53.4,42.9,134.4,85,175.7h72.1c-51-55.1-90.7-129.2-97.1-213,1.9,3.8,4.4,7.4,7.5,10.4,22.1,22.1,66.3,13.7,98.6-18.6,32.4-32.3,40.8-76.5,18.6-98.6-8.2-8.3-19.7-12.3-32.3-12.4h0Z"/>
</svg>