<?xml version="1.0" encoding="UTF-8"?>
<svg id="Camada_1" xmlns="http://www.w3.org/2000/svg" version="1.1" viewBox="0 0 512 512">
  <!-- Generator: Adobe Illustrator 29.5.1, SVG Export Plug-In . SVG Version: 2.1.0 Build 141)  -->
  <defs>
    <style>
      .st0 {
        fill: #fff;
        fill-opacity: 0;
      }
    </style>
  </defs>
  <path class="st0" d="M0,0h512V512H0V0Z"/>
  <path d="M226.1,24.2l-4.1,34.5,32.7,25.6,23.7-50c-18.1-9.1-35.3-9.7-52.4-10.1h0ZM166.8,61.1c-24.2,2.9-42.9,15.9-58.9,33.8h0l96.4,62.6s-37.6-96.4-37.6-96.4ZM300.9,88.7l18.7,85.5-91.1-23.9,40.6,83.6-140.6-89.4c-4,4.9-7.7,10-11.2,15.3-28.8,43.5-42.1,101.1-42.9,156.7,40.1,19.6,63.8,40.1,74,61.6,9.2,19.2,5.5,39.1-6.3,54.2,25.2,23.4,68.6,37.6,113.2,38.3,44.8.7,90-12.1,118.6-38.8-6-6.9-10.4-14.3-12.5-22.4-2.8-10.9-1-22.6,5.2-33.3,11.8-20.5,37.6-39.3,80.1-59.7-.9-52.7-13.9-110.2-42.5-154.4-23.4-36.1-56.5-63.4-103.1-73.4h0ZM181.6,257.6c27.8,0,50.2,22.5,50.2,50.2s-22.5,50.2-50.2,50.2-50.2-22.5-50.2-50.2,22.5-50.2,50.2-50.2ZM331.1,257.6c27.8,0,50.2,22.5,50.2,50.2s-22.5,50.2-50.2,50.2-50.2-22.5-50.2-50.2,22.5-50.2,50.2-50.2ZM256.3,343.7c13.7,29,24.7,58,30.1,87-14.8,12.9-41.3,14.8-60.1,0,7.3-29,16.1-58,30.1-87Z"/>
</svg>