<?xml version="1.0" encoding="UTF-8"?>
<svg id="Camada_1" xmlns="http://www.w3.org/2000/svg" version="1.1" viewBox="0 0 512 512">
  <!-- Generator: Adobe Illustrator 29.5.1, SVG Export Plug-In . SVG Version: 2.1.0 Build 141)  -->
  <path d="M277.1,3.3c-9.4,24.3-18.3,47-27.2,70.2l-97.3-55.3s5.9,49.3,17.8,69.3c-39.2-7-139.1-8.5-139.1-8.5,0,0,64.6,46.3,97.5,70-37,7.6-72.5,15.1-108.1,22.4l.2,1.2c44.5,11,89.1,22,134.8,33.2-20.9,17-41.7,34.1-62.6,51.1,35.6-2.5,69.4-5,103.1-7.4.8-1.3.5-2.8.2-4-7.1-37.3-.7-72.5,21.2-105.1,31.7-45.4,83.4-36,92.8-37.5-9.9-28.3-22.7-69.5-33.3-99.6h0Z"/>
  <path d="M485.1,230.2c-.4-.4-.7-.8-1.1-1.2-6-6.6-15.8-13.5-28.5-20.2-17.2-9-40.2-17.3-66.2-24.1-5.8-21.2-13.8-44.1-35.8-55.6-18-9.6-35.5-13.1-51.3-12.8-30.2.4-54.3,14.7-64.7,27.2-14.8,17.9-22.6,38.3-25.1,60.6-2,18.4-.1,35.7,5.3,52.2l125.4-20.2,25.2-4-4.8,22.6-1.5,7.3c8.4.8,16.1,1,24.2,1.3,7.1-17.9,9.2-36.7,7.3-56.1,15,5.9,28.4,13,39.5,20.6,16.5,11.6,28.2,24.1,33.8,36,4.6-1.5,8.8-3.1,12.1-4.8,7.3-3.9,11.2-8.2,12.1-12.7,1.1-4.7-.7-10-5.9-16.1ZM247,208.5c-8.7,0-15.7-6.4-15.7-14.1s5.5-12.3,12.7-13.6h0c-2.2,1.9-3.7,4.5-3.7,7.3,0,5.6,4.9,10.1,11.2,10.1s9-3,10.4-6.9c.2,1,.7,2,.7,3.1,0,7.7-7,14.1-15.6,14.1ZM306.5,210h0c-9.5,0-17.3-7-17.3-15.6h0c0-7.5,6.1-13.6,14-15h0c-2.5,2-4,4.9-4,8.1,0,6.2,5.5,11.1,12.3,11.1h0c5.4,0,9.9-3.3,11.5-7.6.2,1.2.7,2.2.7,3.4,0,8.5-7.7,15.4-17.2,15.6Z"/>
  <path d="M346.3,251.8l-133.3,21.3,114.1,67.6,4-19.9.9-4.5,4.8.7c38.7,5.9,74.1,6.4,100.2,2.3,13-2,23.6-5.2,31-9s11.2-8.2,12.1-12.7l7-32.6c-1.1.6-2.1,1.2-3.2,1.8-8.8,4.7-20.6,8-34.4,10.2-27.6,4.5-63.9,4.2-103-1l-5.2-.7.9-4.6,4.1-18.9h0Z"/>
  <path d="M246.1,311.8c-12.6,2.7-25,5-36.9,8.2-29.1,7.6-50.8,23.5-62.9,48.8-7,14.4-11.3,29.6-12.5,45.2-.6,7.9-.3,98-.3,98h67.6l.3-94.9h25l.8,94.9h207l-.2-100.4h17.2v100.4h37.8c-.2-36.3,2.2-93.8-6.8-129.1-4.6-17.8-12.8-34.1-28.8-46.4-.6-.5-1.4-.7-2-1.2-12.3,1.8-37.8,2.8-52.8,2.8s-34.2-1.2-52.3-3.4l-1.8,8.9-4.7,23.7-22.3-13.2-71.4-42.3h0Z"/>
</svg>